<?xml version="1.0" encoding="UTF-8"?>
<svg xmlns="http://www.w3.org/2000/svg" width="159" height="68">
  <g fill="none" fill-rule="evenodd">
    <path d="M54 35a5 5 0 1 1-10 0 5 5 0 0 1 10 0" fill="#F4AA00"></path>
    <path d="M13.59 10.44v25.332c0 2.888 2.286 5.228 5.106 5.228s5.106-2.34 5.106-5.228v-25.36l8.093.044c2.82 0 5.105-2.34 5.105-5.228C37 2.341 34.714 0 31.895 0L5.105.063C2.286.063 0 2.357 0 5.244s2.286 5.228 5.106 5.228l8.484-.032z" fill="#BE1635"></path>
    <path fill="#0094BB" d="M53.47 0h-7.923L25 40h11.805L49.5 14.476 62.195 40H74z"></path>
    <path d="M75 4.512C75 1.615 77.283 0 79.741 0H94.26C97.244 0 99 1.671 99 4.178c0 2.618-1.756 4.178-4.741 4.178h-9.776v7.076h8.546c2.985 0 4.742 1.615 4.742 4.178 0 2.563-1.757 4.178-4.742 4.178h-8.546V35.21c0 3.176-1.99 4.791-4.742 4.791C76.99 40 75 38.385 75 35.209V4.512zm27 .038c0-2.92 2.25-4.55 4.673-4.55h14.308c2.942 0 4.673 1.685 4.673 4.213 0 2.64-1.731 4.214-4.673 4.214h-9.635v7.247h8.827c2.942 0 4.673 1.63 4.673 4.214 0 2.584-1.73 4.213-4.673 4.213h-8.827v7.472h9.98c2.943 0 4.674 1.573 4.674 4.213 0 2.529-1.731 4.214-4.673 4.214h-14.654C104.25 40 102 38.37 102 35.45V4.55zm27-.038C129 1.615 131.233 0 133.637 0h11.393C152.187 0 159 4.512 159 13.482c0 7.743-4.866 13.426-13.683 13.426h-7.042v8.301c0 3.176-1.947 4.791-4.638 4.791-2.69 0-4.637-1.615-4.637-4.791V4.512zm9.275 14.374h4.98c3.951 0 6.127-2.619 6.127-5.404 0-3.566-2.462-5.46-6.126-5.46h-4.981v10.864z" fill="#BCBEC0"></path>
    <g fill="#6D6E71">
      <path d="M2.208 50.162H.434c-.26 0-.39-.13-.39-.383v-.26c0-.253.13-.393.39-.393h4.739c.25 0 .38.14.38.392v.261c0 .252-.13.383-.38.383H3.398v5.199c0 .262-.13.392-.39.392h-.419c-.25 0-.38-.13-.38-.392v-5.199zm3.205 1.223c0-.252.13-.392.381-.392h.362c.251 0 .39.14.39.392v.448c0 .177-.027.327-.027.327h.018c.186-.57.707-1.205 1.376-1.205.26 0 .353.131.353.392v.365c0 .252-.15.391-.4.391-.864 0-1.282.86-1.282 1.727v1.531c0 .262-.13.392-.381.392h-.409c-.25 0-.381-.13-.381-.392v-3.976zm3.405-1.587v-.28c0-.252.13-.392.38-.392h.41c.25 0 .39.14.39.392v.28c0 .252-.14.383-.39.383h-.41c-.25 0-.38-.13-.38-.383zm0 1.587c0-.252.13-.392.38-.392h.41c.25 0 .38.14.38.392v3.976c0 .262-.13.392-.38.392h-.41c-.25 0-.38-.13-.38-.392v-3.976zm2.279 0c0-.252.14-.392.39-.392h.298c.25 0 .381.14.381.327v.214c0 .103-.01.187-.01.187h.02s.417-.84 1.523-.84c1.283 0 2.11 1.017 2.11 2.492 0 1.512-.93 2.492-2.175 2.492-.985 0-1.366-.728-1.366-.728h-.018s.027.168.027.41v1.68c0 .262-.13.393-.39.393h-.4c-.25 0-.39-.13-.39-.392v-5.843zm2.324 3.481c.65 0 1.189-.532 1.189-1.474 0-.906-.483-1.494-1.171-1.494-.613 0-1.199.448-1.199 1.503 0 .737.409 1.465 1.18 1.465zm5.625-2.053h.196v-.112c0-.625-.4-.84-.883-.84-.4 0-.762.15-.985.27-.233.103-.41.066-.52-.158l-.094-.177c-.111-.215-.074-.402.15-.523a3.354 3.354 0 0 1 1.55-.392c1.227 0 1.962.69 1.962 1.895v2.585c0 .262-.13.392-.39.392h-.316c-.252 0-.382-.13-.382-.392v-.186c0-.131.019-.206.019-.206h-.019s-.446.896-1.486.896c-.865 0-1.57-.56-1.57-1.428 0-1.39 1.71-1.624 2.768-1.624m-.882 2.147c.66 0 1.087-.672 1.087-1.251v-.177h-.195c-.595 0-1.608.093-1.608.803 0 .317.242.625.716.625m3.326-3.575c0-.252.131-.392.382-.392h.362c.251 0 .39.14.39.392v.448c0 .177-.027.327-.027.327h.018c.186-.57.706-1.205 1.376-1.205.26 0 .353.131.353.392v.365c0 .252-.15.391-.4.391-.864 0-1.282.86-1.282 1.727v1.531c0 .262-.13.392-.381.392h-.41c-.25 0-.38-.13-.38-.392v-3.976zm3.855.615h-.25c-.252 0-.382-.13-.382-.39v-.16c0-.252.13-.392.39-.392h.27v-.97c0-.253.14-.392.39-.392h.372c.25 0 .39.14.39.391v.971h.688c.25 0 .39.14.39.392v.16c0 .26-.14.39-.38.39h-.697v1.85c0 .708.436.849.761.886.288.028.39.121.39.382v.29c0 .28-.157.392-.482.392-.846 0-1.85-.457-1.85-1.745V52zm3.049-2.202v-.28c0-.252.13-.392.381-.392h.41c.25 0 .39.14.39.392v.28c0 .252-.14.383-.39.383h-.41c-.25 0-.38-.13-.38-.383zm0 1.587c0-.252.13-.392.381-.392h.41c.25 0 .38.14.38.392v3.976c0 .262-.13.392-.38.392h-.41c-.25 0-.38-.13-.38-.392v-3.976zm2.46.615h-.25c-.252 0-.382-.13-.382-.39v-.16c0-.252.13-.392.39-.392h.27v-.97c0-.253.14-.392.39-.392h.372c.25 0 .39.14.39.391v.971h.688c.25 0 .39.14.39.392v.16c0 .26-.14.39-.38.39h-.698v1.85c0 .708.437.849.762.886.288.028.39.121.39.382v.29c0 .28-.157.392-.483.392-.845 0-1.849-.457-1.849-1.745V52zm5.038-1.12c1.347 0 2.1.962 2.1 2.269a.412.412 0 0 1-.409.402h-2.89c.074.858.706 1.306 1.422 1.306.436 0 .799-.168 1.022-.308.232-.112.4-.084.52.13l.112.187c.111.215.074.402-.13.523a2.986 2.986 0 0 1-1.608.476c-1.57 0-2.546-1.139-2.546-2.492 0-1.465.985-2.492 2.407-2.492zm.929 1.952c-.019-.663-.418-1.055-.957-1.055-.604 0-1.032.42-1.143 1.055h2.1zm5.973-3.389c.074-.214.213-.317.437-.317h.594c.223 0 .372.103.437.317l2.063 5.862c.093.271-.028.448-.316.448h-.428c-.223 0-.371-.103-.436-.317l-.465-1.382h-2.314l-.455 1.372c-.065.224-.214.327-.437.327h-.427c-.288 0-.41-.177-.316-.448l2.063-5.862zm1.589 3.631l-.586-1.773c-.111-.374-.26-1.027-.26-1.027h-.018s-.15.653-.26 1.027l-.595 1.773h1.719zm2.611-3.556c0-.252.13-.392.381-.392h.409c.25 0 .38.14.38.392v4.658c0 .466.196.55.373.57.167.018.288.12.288.335v.318c0 .242-.112.401-.39.401-.633 0-1.441-.168-1.441-1.531v-4.75zm2.465 0c0-.252.13-.392.38-.392h.41c.25 0 .38.14.38.392v4.658c0 .466.196.55.372.57.167.018.288.12.288.335v.318c0 .242-.111.401-.39.401-.632 0-1.44-.168-1.44-1.531v-4.75zm2.533.28v-.28c0-.252.13-.392.38-.392h.41c.25 0 .39.14.39.392v.28c0 .252-.14.383-.39.383h-.41c-.25 0-.38-.13-.38-.383zm0 1.587c0-.252.13-.392.38-.392h.41c.25 0 .38.14.38.392v3.976c0 .262-.13.392-.38.392h-.41c-.25 0-.38-.13-.38-.392v-3.976zm4.704 1.428h.195v-.112c0-.625-.4-.84-.883-.84-.4 0-.762.15-.985.27-.232.103-.409.066-.52-.158l-.093-.177c-.112-.215-.074-.402.149-.523a3.354 3.354 0 0 1 1.551-.392c1.227 0 1.961.69 1.961 1.895v2.585c0 .262-.13.392-.39.392h-.316c-.251 0-.381-.13-.381-.392v-.186c0-.131.018-.206.018-.206h-.018s-.446.896-1.487.896c-.864 0-1.57-.56-1.57-1.428 0-1.39 1.71-1.624 2.769-1.624m-.883 2.147c.66 0 1.087-.672 1.087-1.251v-.177h-.195c-.595 0-1.608.093-1.608.803 0 .317.242.625.716.625m3.327-3.575c0-.252.13-.392.381-.392h.363c.25 0 .38.14.38.392v.29c0 .102-.018.214-.018.214h.019a1.848 1.848 0 0 1 1.682-1.008c1.05 0 1.654.55 1.654 1.81v2.67c0 .262-.13.392-.39.392h-.4c-.251 0-.39-.13-.39-.392v-2.427c0-.578-.149-.97-.744-.97-.836 0-1.366.7-1.366 1.558v1.84c0 .26-.13.391-.38.391h-.41c-.25 0-.38-.13-.38-.392v-3.976zm7.82-.505c.762 0 1.273.281 1.552.477.195.13.204.326.074.532l-.12.186c-.14.215-.298.215-.521.103a1.65 1.65 0 0 0-.92-.289c-.873 0-1.44.662-1.44 1.475 0 .802.567 1.493 1.477 1.493.465 0 .837-.205 1.06-.364.232-.13.409-.103.53.121l.092.178c.112.205.084.392-.102.522a2.805 2.805 0 0 1-1.682.551c-1.57 0-2.574-1.11-2.574-2.492 0-1.353 1.004-2.492 2.574-2.492m4.617-.001c1.347 0 2.1.962 2.1 2.269a.412.412 0 0 1-.408.402h-2.89c.074.858.706 1.306 1.421 1.306.437 0 .8-.168 1.022-.308.233-.112.4-.084.52.13l.112.187c.112.215.075.402-.13.523a2.986 2.986 0 0 1-1.607.476c-1.57 0-2.546-1.139-2.546-2.492 0-1.465.985-2.492 2.406-2.492zm.93 1.952c-.02-.663-.419-1.055-.958-1.055-.604 0-1.031.42-1.143 1.055h2.1zM77.104 52h-.232c-.251 0-.381-.13-.381-.39v-.16c0-.252.13-.392.38-.392h.233v-.224c0-1.512 1.33-1.745 1.812-1.745h.14c.25 0 .38.13.38.392v.243c0 .252-.14.363-.399.382-.288.019-.753.084-.753.775v.177h.632c.251 0 .38.14.38.392v.16c0 .26-.129.39-.38.39h-.632v3.361c0 .262-.14.392-.39.392h-.409c-.25 0-.38-.13-.38-.392v-3.36zm5.011-1.12c1.44 0 2.61 1.037 2.61 2.493 0 1.465-1.17 2.492-2.61 2.492s-2.602-1.027-2.602-2.492c0-1.456 1.161-2.492 2.602-2.492m0 3.976c.77 0 1.412-.597 1.412-1.484 0-.878-.641-1.484-1.412-1.484-.772 0-1.404.606-1.404 1.484 0 .887.632 1.484 1.404 1.484m3.429-3.472c0-.252.13-.392.38-.392h.363c.251 0 .39.14.39.392v.448c0 .177-.027.327-.027.327h.018c.186-.57.706-1.205 1.375-1.205.26 0 .354.131.354.392v.365c0 .252-.149.391-.4.391-.864 0-1.282.86-1.282 1.727v1.531c0 .262-.13.392-.381.392h-.41c-.25 0-.38-.13-.38-.392v-3.976zM.31 59.703c0-.253.125-.392.366-.392h2.898c.24 0 .374.14.374.392v.26c0 .253-.133.383-.374.383H1.45v1.877h1.73c.241 0 .375.13.375.382v.262c0 .252-.134.392-.375.392H1.45v2.286c0 .262-.125.393-.365.393h-.41c-.241 0-.366-.13-.366-.393v-5.842zm6.173 3.294h.187v-.112c0-.625-.383-.84-.847-.84-.383 0-.731.15-.945.271-.223.103-.393.065-.5-.159l-.09-.177c-.106-.215-.07-.401.144-.523a3.12 3.12 0 0 1 1.489-.392c1.177 0 1.882.691 1.882 1.895v2.585c0 .262-.125.393-.375.393h-.303c-.24 0-.365-.131-.365-.393v-.186c0-.13.017-.206.017-.206H6.76s-.429.896-1.427.896c-.83 0-1.508-.56-1.508-1.428 0-1.39 1.641-1.624 2.658-1.624m-.847 2.147c.633 0 1.043-.672 1.043-1.25v-.178h-.187c-.571 0-1.543.093-1.543.803 0 .317.232.625.687.625m3.062-5.161v-.28c0-.253.125-.392.366-.392h.392c.241 0 .375.14.375.392v.28c0 .252-.134.382-.375.382h-.392c-.24 0-.366-.13-.366-.382zm0 1.586c0-.252.125-.392.366-.392h.392c.241 0 .366.14.366.392v3.977c0 .261-.125.392-.366.392h-.392c-.24 0-.366-.13-.366-.392v-3.977zm2.054.001c0-.253.125-.393.366-.393h.347c.241 0 .375.14.375.392v.448c0 .178-.027.327-.027.327h.018c.179-.57.678-1.204 1.32-1.204.25 0 .339.13.339.392v.364c0 .252-.143.392-.383.392-.83 0-1.231.859-1.231 1.727v1.53c0 .262-.125.393-.366.393h-.392c-.241 0-.366-.13-.366-.392v-3.977zm9.328 1.978c.116-.224.232-.504.348-.672.125-.177.286-.29.464-.29.285 0 .58.234.58.533 0 .327-.34.933-.66 1.25l.535.673c.08.102.125.233.125.373 0 .29-.25.588-.67.588-.204 0-.311-.112-.436-.261l-.41-.495c-.58.588-1.267.812-2.07.812-1.4 0-1.997-.962-1.997-1.858 0-.998.615-1.652 1.4-2.053-.32-.383-.615-.775-.615-1.335 0-1.073.83-1.661 1.783-1.661 1.41 0 1.847.924 1.847 1.624 0 .737-.473 1.353-1.115 1.68l.891 1.092zm-2.006-.57c-.517.3-.883.636-.883 1.112 0 .531.33.905.874.905.553 0 .91-.318 1.177-.57l-1.168-1.446zm.375-1.287c.294-.187.73-.449.73-.971 0-.336-.285-.616-.668-.616-.384 0-.66.261-.66.597 0 .467.268.7.598.99zm6.019-1.988c0-.253.125-.392.366-.392h2.069c1.186 0 2.015.868 2.015 2.155 0 1.289-.83 2.185-2.015 2.185H25.61v1.894c0 .262-.125.393-.366.393h-.41c-.24 0-.366-.13-.366-.393v-5.842zm2.221 2.902c.678 0 1.061-.448 1.061-1.139 0-.68-.383-1.12-1.043-1.12H25.61v2.26h1.079zm2.756-1.035c0-.253.124-.393.365-.393h.348c.24 0 .375.14.375.392v.448c0 .178-.027.327-.027.327h.018c.178-.57.677-1.204 1.32-1.204.25 0 .338.13.338.392v.364c0 .252-.142.392-.383.392-.83 0-1.23.859-1.23 1.727v1.53c0 .262-.126.393-.367.393h-.392c-.24 0-.365-.13-.365-.392v-3.977zm5.308-.505c1.382 0 2.506 1.036 2.506 2.492 0 1.466-1.124 2.492-2.506 2.492-1.382 0-2.497-1.026-2.497-2.492 0-1.456 1.115-2.492 2.497-2.492m0 3.976c.74 0 1.355-.597 1.355-1.484 0-.877-.615-1.484-1.355-1.484s-1.347.607-1.347 1.484c0 .887.607 1.484 1.347 1.484m4.025 1.671c.214.084.5.178.918.178.696 0 1.284-.308 1.284-1.158v-.354c0-.112.018-.243.018-.243h-.018c-.25.448-.642.71-1.248.71-1.329 0-2.06-1.102-2.06-2.418 0-1.298.695-2.362 2.05-2.362 1.062 0 1.347.729 1.347.729h.018s-.009-.047-.009-.122v-.177c0-.178.125-.318.366-.318h.303c.241 0 .366.14.366.392v4.08c0 1.633-1.23 2.249-2.355 2.249-.508 0-1.016-.112-1.328-.252-.232-.103-.294-.262-.196-.504l.071-.215c.098-.233.232-.299.473-.215m2.23-3.257c0-1.092-.518-1.382-1.107-1.382-.704 0-1.088.523-1.088 1.307 0 .859.41 1.466 1.142 1.466.535 0 1.052-.327 1.052-1.391m2.048-1.885c0-.253.124-.393.365-.393h.348c.24 0 .375.14.375.392v.448c0 .178-.027.327-.027.327h.018c.178-.57.677-1.204 1.32-1.204.25 0 .338.13.338.392v.364c0 .252-.142.392-.383.392-.83 0-1.23.859-1.23 1.727v1.53c0 .262-.126.393-.367.393h-.392c-.24 0-.365-.13-.365-.392v-3.977zm5.143-.505c1.293 0 2.015.962 2.015 2.268 0 .206-.17.402-.392.402h-2.774c.072.858.678 1.306 1.365 1.306.419 0 .767-.168.98-.307.224-.113.384-.085.5.13l.107.187c.107.215.071.401-.125.522-.294.196-.83.476-1.543.476-1.507 0-2.443-1.138-2.443-2.492 0-1.465.945-2.492 2.31-2.492zm.891 1.951c-.017-.663-.4-1.055-.918-1.055-.58 0-.99.42-1.097 1.055h2.015zm1.581 2.016l.107-.168c.134-.196.285-.215.508-.093.214.121.553.326 1.017.326.392 0 .633-.186.633-.485 0-.774-2.256-.485-2.256-2.118 0-.934.784-1.429 1.739-1.429.606 0 1.025.205 1.266.346.205.112.232.307.134.522l-.09.168c-.106.224-.276.252-.499.15-.196-.094-.49-.234-.865-.234-.392 0-.615.168-.615.467 0 .784 2.256.476 2.256 2.1 0 .84-.678 1.465-1.73 1.465a2.58 2.58 0 0 1-1.516-.485c-.205-.121-.223-.326-.089-.532m3.777 0l.107-.168c.134-.196.285-.215.508-.093.214.121.553.326 1.016.326.393 0 .634-.186.634-.485 0-.774-2.257-.485-2.257-2.118 0-.934.785-1.429 1.74-1.429.606 0 1.025.205 1.266.346.205.112.232.307.134.522l-.09.168c-.106.224-.276.252-.5.15-.195-.094-.49-.234-.864-.234-.392 0-.615.168-.615.467 0 .784 2.256.476 2.256 2.1 0 .84-.678 1.465-1.73 1.465a2.58 2.58 0 0 1-1.516-.485c-.206-.121-.223-.326-.09-.532m4.007-5.049v-.28c0-.253.125-.392.365-.392h.393c.24 0 .374.14.374.392v.28c0 .252-.134.382-.374.382h-.393c-.24 0-.365-.13-.365-.382zm0 1.586c0-.252.125-.392.365-.392h.393c.24 0 .365.14.365.392v3.977c0 .261-.125.392-.365.392h-.393c-.24 0-.365-.13-.365-.392v-3.977zm1.592.056c-.089-.27.018-.448.295-.448h.419c.214 0 .357.103.42.327l.846 2.623c.09.28.17.718.17.718h.018s.071-.438.16-.718l.847-2.623c.063-.224.206-.327.42-.327h.419c.276 0 .392.178.303.448l-1.374 3.995c-.07.224-.205.318-.419.318h-.713c-.214 0-.357-.094-.42-.318l-1.39-3.995zm6.755-.56c1.293 0 2.015.962 2.015 2.268 0 .206-.17.402-.392.402H65.65c.072.858.679 1.306 1.365 1.306.42 0 .767-.168.981-.307.223-.113.384-.085.5.13l.106.187c.108.215.072.401-.125.522a2.783 2.783 0 0 1-1.542.476c-1.507 0-2.444-1.138-2.444-2.492 0-1.465.946-2.492 2.31-2.492zm.892 1.951c-.018-.663-.401-1.055-.919-1.055-.58 0-.99.42-1.097 1.055h2.016zm4.075-3.313c0-.253.125-.392.366-.392h3.05c.24 0 .375.14.375.392v.26c0 .253-.134.383-.375.383h-2.274v1.737h1.766c.24 0 .374.13.374.382v.262c0 .261-.133.392-.374.392h-1.766V64.9h2.417c.24 0 .374.131.374.383v.261c0 .262-.134.393-.374.393h-3.193c-.24 0-.366-.13-.366-.393v-5.842zm4.574 1.867c0-.253.125-.393.366-.393h.348c.24 0 .366.14.366.392v.29c0 .102-.018.214-.018.214h.018c.223-.466.775-1.008 1.489-1.008.687 0 1.141.336 1.329.98h.018c.24-.494.838-.98 1.551-.98.946 0 1.49.56 1.49 1.811v2.67c0 .261-.134.392-.375.392h-.384c-.25 0-.374-.13-.374-.392V63.1c0-.541-.098-.952-.624-.952-.767 0-1.16.822-1.16 1.652v1.746c0 .261-.124.392-.365.392h-.393c-.24 0-.374-.13-.374-.392V63.1c0-.513-.072-.952-.606-.952-.803 0-1.178.859-1.178 1.652v1.746c0 .261-.125.392-.365.392h-.393c-.24 0-.366-.13-.366-.392v-3.977zm7.865 0c0-.253.134-.393.375-.393h.285c.241 0 .366.14.366.327v.214c0 .103-.009.187-.009.187h.018s.401-.84 1.462-.84c1.231 0 2.025 1.018 2.025 2.492 0 1.513-.892 2.492-2.087 2.492-.945 0-1.31-.727-1.31-.727h-.019s.027.168.027.41v1.68c0 .262-.125.392-.375.392h-.383c-.24 0-.375-.13-.375-.392V61.57zm2.23 3.48c.624 0 1.141-.531 1.141-1.474 0-.905-.463-1.493-1.123-1.493-.589 0-1.15.448-1.15 1.503 0 .737.392 1.465 1.132 1.465zm2.972-5.347c0-.253.125-.392.365-.392h.393c.24 0 .365.14.365.392v4.657c0 .467.187.55.357.57.16.018.276.12.276.336v.317c0 .243-.107.401-.374.401-.607 0-1.382-.168-1.382-1.53v-4.751zm4.448 1.362c1.382 0 2.506 1.036 2.506 2.492 0 1.466-1.124 2.492-2.506 2.492-1.382 0-2.497-1.026-2.497-2.492 0-1.456 1.115-2.492 2.497-2.492m0 3.976c.74 0 1.355-.597 1.355-1.484 0-.877-.615-1.484-1.355-1.484s-1.347.607-1.347 1.484c0 .887.607 1.484 1.347 1.484"></path>
      <path d="M96.915 66.834c.08.037.187.083.321.083.33 0 .588-.298.722-.634l.17-.42-1.73-4.228c-.117-.271 0-.458.285-.458h.481c.223 0 .348.103.42.318l.856 2.426c.08.252.17.644.17.644h.017s.08-.373.152-.625l.802-2.436c.063-.224.196-.327.42-.327h.445c.277 0 .393.178.303.448l-1.872 5.022c-.312.868-.972 1.25-1.641 1.25-.25 0-.473-.074-.633-.14-.214-.083-.268-.289-.17-.503l.08-.206c.099-.214.25-.252.402-.214m4.295-5.264c0-.253.125-.393.367-.393h.347c.24 0 .365.14.365.392v.29c0 .102-.017.214-.017.214h.017c.224-.466.777-1.008 1.49-1.008.687 0 1.142.336 1.329.98h.018c.24-.494.838-.98 1.551-.98.946 0 1.49.56 1.49 1.811v2.67c0 .261-.134.392-.375.392h-.383c-.25 0-.375-.13-.375-.392V63.1c0-.541-.098-.952-.624-.952-.767 0-1.16.822-1.16 1.652v1.746c0 .261-.124.392-.365.392h-.392c-.242 0-.375-.13-.375-.392V63.1c0-.513-.072-.952-.607-.952-.802 0-1.177.859-1.177 1.652v1.746c0 .261-.124.392-.365.392h-.392c-.242 0-.366-.13-.366-.392v-3.977zm9.9-.505c1.293 0 2.015.962 2.015 2.268 0 .206-.17.402-.392.402h-2.774c.072.858.678 1.306 1.365 1.306.419 0 .767-.168.98-.307.224-.113.384-.085.5.13l.107.187c.107.215.072.401-.125.522a2.783 2.783 0 0 1-1.542.476c-1.508 0-2.444-1.138-2.444-2.492 0-1.465.945-2.492 2.31-2.492zm.891 1.951c-.017-.663-.4-1.055-.918-1.055-.58 0-.99.42-1.097 1.055h2.015zm1.802-1.446c0-.253.125-.393.366-.393h.348c.24 0 .365.14.365.392v.29c0 .102-.018.214-.018.214h.018c.196-.4.696-1.008 1.614-1.008 1.008 0 1.588.55 1.588 1.811v2.67c0 .261-.125.392-.375.392h-.383c-.24 0-.375-.13-.375-.392v-2.427c0-.579-.143-.97-.713-.97-.803 0-1.311.7-1.311 1.558v1.839c0 .261-.125.392-.366.392h-.392c-.241 0-.366-.13-.366-.392v-3.977zm5.315.615h-.24c-.241 0-.366-.13-.366-.391v-.16c0-.251.125-.391.374-.391h.26v-.971c0-.252.133-.392.374-.392h.356c.241 0 .375.14.375.392v.97h.66c.24 0 .374.14.374.393v.159c0 .26-.133.391-.365.391h-.669v1.849c0 .709.42.849.731.886.277.028.375.122.375.383v.29c0 .28-.152.391-.464.391-.811 0-1.775-.457-1.775-1.745v-2.054zm5.129-2.482c0-.253.124-.392.365-.392h2.07c1.185 0 2.015.868 2.015 2.155 0 1.289-.83 2.185-2.016 2.185h-1.293v1.894c0 .262-.125.393-.366.393h-.41c-.24 0-.365-.13-.365-.393v-5.842zm2.22 2.902c.678 0 1.061-.448 1.061-1.139 0-.68-.383-1.12-1.043-1.12h-1.097v2.26h1.079zm2.756-1.035c0-.253.124-.393.365-.393h.348c.24 0 .375.14.375.392v.448c0 .178-.027.327-.027.327h.017c.18-.57.678-1.204 1.32-1.204.25 0 .34.13.34.392v.364c0 .252-.143.392-.384.392-.83 0-1.23.859-1.23 1.727v1.53c0 .262-.126.393-.366.393h-.393c-.24 0-.365-.13-.365-.392v-3.977zm5.419 1.427h.187v-.112c0-.625-.384-.84-.847-.84-.384 0-.732.15-.946.271-.222.103-.392.065-.5-.159l-.088-.177c-.107-.215-.072-.401.142-.523a3.119 3.119 0 0 1 1.49-.392c1.177 0 1.881.691 1.881 1.895v2.585c0 .262-.125.393-.374.393h-.303c-.241 0-.366-.131-.366-.393v-.186c0-.13.018-.206.018-.206h-.018s-.428.896-1.427.896c-.83 0-1.507-.56-1.507-1.428 0-1.39 1.64-1.624 2.658-1.624m-.848 2.147c.634 0 1.044-.672 1.044-1.25v-.178h-.188c-.57 0-1.542.093-1.542.803 0 .317.232.625.686.625m5.257-4.079c.732 0 1.222.28 1.49.476.187.131.196.327.07.532l-.115.187c-.134.215-.285.215-.5.103a1.537 1.537 0 0 0-.882-.29c-.839 0-1.383.663-1.383 1.475 0 .803.544 1.493 1.419 1.493.445 0 .802-.205 1.016-.364.223-.13.392-.102.508.122l.09.177c.107.206.08.392-.099.523-.276.215-.829.55-1.614.55-1.507 0-2.47-1.11-2.47-2.492 0-1.353.963-2.492 2.47-2.492m2.621 1.12h-.24c-.24 0-.366-.13-.366-.391v-.16c0-.251.125-.391.375-.391h.258v-.971c0-.252.134-.392.375-.392h.357c.24 0 .374.14.374.392v.97h.66c.24 0 .375.14.375.393v.159c0 .26-.134.391-.366.391h-.669v1.849c0 .709.42.849.732.886.276.028.374.122.374.383v.29c0 .28-.152.391-.464.391-.811 0-1.775-.457-1.775-1.745v-2.054zm2.796-2.202v-.28c0-.253.125-.392.366-.392h.392c.241 0 .375.14.375.392v.28c0 .252-.134.382-.375.382h-.392c-.24 0-.366-.13-.366-.382zm0 1.586c0-.252.125-.392.366-.392h.392c.241 0 .366.14.366.392v3.977c0 .261-.125.392-.366.392h-.392c-.24 0-.366-.13-.366-.392v-3.977zm4.244-.504c.732 0 1.222.28 1.49.476.187.131.196.327.071.532l-.116.187c-.134.215-.285.215-.5.103a1.535 1.535 0 0 0-.882-.29c-.838 0-1.382.663-1.382 1.475 0 .803.544 1.493 1.418 1.493.445 0 .802-.205 1.016-.364.223-.13.393-.102.508.122l.09.177c.107.206.08.392-.098.523-.277.215-.83.55-1.615.55-1.507 0-2.47-1.11-2.47-2.492 0-1.353.963-2.492 2.47-2.492m4.302 0c1.293 0 2.016.962 2.016 2.268 0 .206-.17.402-.393.402h-2.773c.07.858.677 1.306 1.364 1.306.419 0 .767-.168.981-.307.223-.113.383-.085.499.13l.107.187c.107.215.072.401-.125.522a2.783 2.783 0 0 1-1.542.476c-1.508 0-2.444-1.138-2.444-2.492 0-1.465.945-2.492 2.31-2.492zm.892 1.951c-.018-.663-.402-1.055-.919-1.055-.58 0-.99.42-1.097 1.055h2.016zm1.58 2.016l.107-.168c.134-.196.285-.215.508-.093.214.121.553.326 1.017.326.392 0 .633-.186.633-.485 0-.774-2.256-.485-2.256-2.118 0-.934.785-1.429 1.739-1.429.606 0 1.025.205 1.266.346.206.112.232.307.134.522l-.09.168c-.106.224-.276.252-.498.15-.197-.094-.491-.234-.866-.234-.392 0-.615.168-.615.467 0 .784 2.256.476 2.256 2.1 0 .84-.678 1.465-1.73 1.465a2.58 2.58 0 0 1-1.516-.485c-.205-.121-.223-.326-.089-.532"></path>
    </g>
  </g>
</svg>
